<svg xmlns="http://www.w3.org/2000/svg" viewBox="0 0 440.73 281.6"><defs><style>.cls-1{isolation:isolate;}.cls-2{fill:#a5d4c1;}.cls-3,.cls-7{fill:#283449;}.cls-4{fill:#00958d;}.cls-5{fill:#4eb691;}.cls-6{fill:#ec925e;}.cls-7{mix-blend-mode:soft-light;}.cls-13,.cls-8{fill:#ef7a1a;}.cls-9{fill:#ce7b5b;}.cls-10{fill:#b15133;}.cls-11,.cls-14{fill:#f8b264;}.cls-12{fill:#e9e9e9;}.cls-13,.cls-14{opacity:0.7;}.cls-15{fill:#b7664b;}.cls-16{fill:#008378;}</style></defs><g class="cls-1"><g id="Camada_1" data-name="Camada 1"><path class="cls-2" d="M373.07,178.35c-.69,17.92-5.18,35.93-14.66,51.27a86.16,86.16,0,0,1-34.12,31.83,70.91,70.91,0,0,1-22.16,6.95,86.54,86.54,0,0,1-27-1.06c-18.71-3.38-36.47-10.7-55.25-13.85-21-3.53-41.78.73-62.63,3.46-18.53,2.42-38.33,3.33-55.77-4.54A61.83,61.83,0,0,1,70,219.13a61.13,61.13,0,0,1,15.83-66.92c6.28-5.67,13.63-10,21.2-13.69,7.77-3.84,15.79-7.13,23.56-11A102.05,102.05,0,0,0,153,112.82q3.9-3.43,7.46-7.18C165,99.87,169.29,93.89,173.6,88,184,73.72,195,59.31,210.06,49.71c13.85-8.83,30.33-13,46.68-13a102.29,102.29,0,0,1,47.77,11.93c14.55,7.74,27.12,19,37.18,32a149.61,149.61,0,0,1,23.08,43.5A151.28,151.28,0,0,1,373.07,178.35Z" transform="translate(-4.8 -3.91)"/><path class="cls-3" d="M405.54,239.68h-.09a.51.51,0,0,1-.4-.59c.2-1,.37-2,.54-2.94a.5.5,0,0,1,1,.17c-.17,1-.35,2-.55,3A.49.49,0,0,1,405.54,239.68Z" transform="translate(-4.8 -3.91)"/><path class="cls-3" d="M406.94,230.8h-.06a.5.5,0,0,1-.44-.55c.23-2,.41-4,.54-5.94a.51.51,0,0,1,.53-.47.51.51,0,0,1,.47.53c-.13,2-.32,4-.55,6A.5.5,0,0,1,406.94,230.8Zm.78-12h0a.5.5,0,0,1-.49-.51c0-.58,0-1.16,0-1.74,0-1.39,0-2.81-.08-4.22a.5.5,0,0,1,1,0c.05,1.43.08,2.86.08,4.26,0,.59,0,1.17,0,1.76A.51.51,0,0,1,407.72,218.85Zm-.43-12a.49.49,0,0,1-.49-.45c-.17-2-.39-4-.66-5.93a.5.5,0,0,1,.43-.56.48.48,0,0,1,.56.42c.27,2,.49,4,.66,6a.49.49,0,0,1-.45.54ZM405.69,195a.49.49,0,0,1-.49-.41c-.36-1.94-.77-3.91-1.23-5.84a.5.5,0,0,1,.37-.6.49.49,0,0,1,.6.37c.46,2,.88,3.93,1.24,5.89a.5.5,0,0,1-.4.58Zm-2.75-11.65a.5.5,0,0,1-.48-.37c-.55-1.89-1.15-3.8-1.8-5.68a.5.5,0,1,1,.95-.33c.65,1.9,1.26,3.83,1.81,5.74a.51.51,0,0,1-.34.62ZM399.05,172a.51.51,0,0,1-.47-.31c-.72-1.83-1.51-3.68-2.34-5.49a.49.49,0,1,1,.9-.41c.84,1.82,1.64,3.68,2.37,5.53a.5.5,0,0,1-.27.65Zm-5-10.88a.51.51,0,0,1-.45-.27c-.91-1.76-1.89-3.51-2.89-5.22a.5.5,0,1,1,.86-.5c1,1.72,2,3.49,2.92,5.26a.5.5,0,0,1-.21.67A.53.53,0,0,1,394.06,161.16ZM388,150.84a.49.49,0,0,1-.41-.22c-.55-.83-1.11-1.66-1.68-2.47s-1.15-1.62-1.74-2.42a.5.5,0,0,1,.1-.7.51.51,0,0,1,.7.11c.6.8,1.18,1.62,1.76,2.43s1.14,1.66,1.69,2.5a.5.5,0,0,1-.14.69A.48.48,0,0,1,388,150.84Zm-7.11-9.63a.5.5,0,0,1-.39-.18c-1.26-1.52-2.57-3-3.91-4.5a.5.5,0,0,1,0-.71.49.49,0,0,1,.7,0c1.35,1.48,2.67,3,3.94,4.55a.49.49,0,0,1-.07.7A.45.45,0,0,1,380.87,141.21Zm-8.07-8.84a.54.54,0,0,1-.36-.14c-1.39-1.39-2.85-2.76-4.34-4.09a.5.5,0,0,1,.67-.75c1.5,1.35,3,2.73,4.38,4.13a.49.49,0,0,1,0,.7A.5.5,0,0,1,372.8,132.37Zm-8.92-8a.48.48,0,0,1-.32-.11c-1.54-1.25-3.13-2.47-4.73-3.63a.5.5,0,0,1-.1-.7.49.49,0,0,1,.69-.11c1.61,1.17,3.22,2.41,4.77,3.67a.48.48,0,0,1,.07.7A.48.48,0,0,1,363.88,124.38Zm-9.67-7.06a.46.46,0,0,1-.27-.09c-1.66-1.08-3.36-2.15-5.06-3.15a.51.51,0,0,1-.18-.69.49.49,0,0,1,.68-.17c1.72,1,3.44,2.08,5.11,3.18a.5.5,0,0,1,.14.69A.51.51,0,0,1,354.21,117.32ZM224,116.66a.48.48,0,0,1-.42-.23.49.49,0,0,1,.15-.69c1.68-1.08,3.41-2.13,5.14-3.12a.49.49,0,0,1,.68.18.51.51,0,0,1-.19.69c-1.71,1-3.43,2-5.09,3.09A.56.56,0,0,1,224,116.66Zm119.87-5.43a.46.46,0,0,1-.23-.06c-1.75-.92-3.55-1.81-5.35-2.64a.5.5,0,0,1,.43-.91c1.8.84,3.62,1.74,5.38,2.67a.49.49,0,0,1,.21.67A.5.5,0,0,1,343.9,111.23Zm-109.49-.52a.5.5,0,0,1-.22-.95c1.78-.9,3.6-1.77,5.43-2.58a.5.5,0,1,1,.4.91c-1.8.81-3.61,1.67-5.38,2.56A.46.46,0,0,1,234.41,110.71ZM333,106.18l-.19,0c-1.83-.75-3.71-1.46-5.57-2.11a.5.5,0,0,1,.32-.94c1.89.65,3.78,1.37,5.63,2.12a.5.5,0,0,1-.19,1Zm-87.69-.35a.5.5,0,0,1-.18-1c1.86-.72,3.76-1.41,5.66-2a.5.5,0,0,1,.63.31.52.52,0,0,1-.32.64c-1.88.62-3.76,1.3-5.61,2A.39.39,0,0,1,245.35,105.83Zm76.39-3.59a.32.32,0,0,1-.14,0c-1.91-.56-3.85-1.07-5.77-1.53a.5.5,0,0,1-.37-.6.51.51,0,0,1,.6-.37c1.94.46,3.9,1,5.82,1.54a.5.5,0,0,1-.14,1Zm-65-.19a.5.5,0,0,1-.13-1c1.92-.54,3.88-1,5.83-1.47a.5.5,0,0,1,.59.38.48.48,0,0,1-.37.59c-1.93.44-3.88.93-5.79,1.46A.3.3,0,0,1,256.71,102.05Zm53.38-2.58H310c-1-.18-2-.35-3-.5s-2-.29-2.93-.42a.49.49,0,0,1-.43-.56.5.5,0,0,1,.56-.43c1,.13,2,.27,3,.42s2,.33,3,.51a.5.5,0,0,1-.09,1Zm-41.7-.06a.49.49,0,0,1-.49-.42.5.5,0,0,1,.4-.58c2-.34,4-.64,5.95-.89a.51.51,0,0,1,.56.43.5.5,0,0,1-.44.56c-2,.25-3.95.55-5.9.89Zm29.83-1.48h0c-2-.15-4-.26-6-.31a.5.5,0,0,1,0-1c2,0,4,.16,6,.31a.5.5,0,0,1,0,1Zm-18,0a.5.5,0,0,1,0-1c2-.15,4-.25,6-.3a.49.49,0,0,1,.51.49.5.5,0,0,1-.49.51c-2,0-4,.15-5.95.3Z" transform="translate(-4.8 -3.91)"/><path class="cls-3" d="M216.64,121.83a.5.5,0,0,1-.3-.9c.8-.61,1.61-1.2,2.42-1.79a.5.5,0,1,1,.59.81c-.81.58-1.61,1.17-2.41,1.78A.47.47,0,0,1,216.64,121.83Z" transform="translate(-4.8 -3.91)"/><path class="cls-3" d="M16.94,175.67a.49.49,0,0,1-.5-.49c0-1,0-2,0-3a.47.47,0,0,1,.51-.49.49.49,0,0,1,.49.51c0,1,0,2,0,3a.5.5,0,0,1-.5.51Z" transform="translate(-4.8 -3.91)"/><path class="cls-3" d="M17.26,166.8h-.05a.49.49,0,0,1-.45-.54c.16-1.95.4-3.92.69-5.87A.51.51,0,0,1,18,160a.5.5,0,0,1,.42.57c-.29,1.93-.52,3.88-.69,5.81A.5.5,0,0,1,17.26,166.8ZM19,155.17h-.1a.5.5,0,0,1-.39-.59c.42-1.91.9-3.84,1.44-5.74a.49.49,0,0,1,.61-.34.5.5,0,0,1,.35.61c-.53,1.88-1,3.79-1.42,5.68A.5.5,0,0,1,19,155.17Zm3.2-11.31a.45.45,0,0,1-.16,0,.5.5,0,0,1-.31-.63c.65-1.86,1.37-3.71,2.13-5.52a.51.51,0,0,1,.65-.27.5.5,0,0,1,.27.66c-.76,1.79-1.46,3.63-2.11,5.46A.5.5,0,0,1,22.21,143.86ZM26.77,133a.59.59,0,0,1-.22-.05.51.51,0,0,1-.23-.67c.88-1.77,1.81-3.52,2.78-5.22a.52.52,0,0,1,.69-.19.51.51,0,0,1,.18.69c-1,1.68-1.89,3.42-2.75,5.16A.51.51,0,0,1,26.77,133Zm5.84-10.2a.46.46,0,0,1-.27-.09.49.49,0,0,1-.14-.69c1.07-1.64,2.22-3.27,3.39-4.84a.5.5,0,0,1,.8.6C35.23,119.37,34.1,121,33,122.6A.48.48,0,0,1,32.61,122.83Zm7-9.41a.49.49,0,0,1-.32-.12.51.51,0,0,1-.06-.71c1.28-1.5,2.61-3,4-4.38a.5.5,0,1,1,.72.7c-1.34,1.39-2.67,2.85-3.93,4.33A.49.49,0,0,1,39.66,113.42ZM47.83,105a.49.49,0,0,1-.37-.16.5.5,0,0,1,0-.71c1.46-1.32,3-2.61,4.51-3.83a.5.5,0,0,1,.62.78c-1.52,1.21-3,2.49-4.45,3.8A.54.54,0,0,1,47.83,105ZM57,97.65a.5.5,0,0,1-.29-.91c1.61-1.11,3.28-2.19,5-3.21a.5.5,0,0,1,.52.86c-1.68,1-3.33,2.07-4.92,3.17A.47.47,0,0,1,57,97.65Zm10.08-6a.5.5,0,0,1-.44-.27.51.51,0,0,1,.21-.68c1.74-.89,3.54-1.74,5.34-2.53a.49.49,0,0,1,.66.26.5.5,0,0,1-.26.66c-1.78.78-3.56,1.62-5.28,2.5A.46.46,0,0,1,67.11,91.61ZM77.89,86.9a.5.5,0,0,1-.18-1c1.84-.67,3.73-1.3,5.62-1.86a.51.51,0,0,1,.62.34.49.49,0,0,1-.34.62c-1.86.56-3.73,1.17-5.55,1.83A.36.36,0,0,1,77.89,86.9Zm11.27-3.33a.5.5,0,0,1-.11-1c1.91-.44,3.86-.83,5.79-1.15a.51.51,0,0,1,.58.41.51.51,0,0,1-.41.58c-1.92.32-3.85.7-5.74,1.14ZM130,83.08h-.1c-1.89-.4-3.83-.74-5.76-1a.5.5,0,1,1,.15-1c1.94.28,3.9.63,5.82,1a.5.5,0,0,1-.11,1Zm-29.25-1.45a.49.49,0,0,1-.49-.45.5.5,0,0,1,.44-.55c2-.2,3.93-.35,5.89-.44a.51.51,0,0,1,.53.48.5.5,0,0,1-.48.52c-1.94.09-3.91.23-5.84.44Zm17.62-.23h0c-1.93-.16-3.9-.25-5.84-.29a.49.49,0,0,1-.49-.5.52.52,0,0,1,.51-.5c2,0,3.95.13,5.9.29a.5.5,0,0,1,0,1Z" transform="translate(-4.8 -3.91)"/><path class="cls-3" d="M138.61,85.35a.4.4,0,0,1-.15,0c-1-.3-1.9-.58-2.86-.85a.5.5,0,0,1-.34-.62.49.49,0,0,1,.61-.34c1,.27,1.94.56,2.89.86a.5.5,0,0,1-.15,1Z" transform="translate(-4.8 -3.91)"/><path class="cls-4" d="M107.57,218.15C58,168.46,94.76,112.45,94.76,112.45S143.87,158.06,107.57,218.15Z" transform="translate(-4.8 -3.91)"/><path class="cls-5" d="M116.33,172c.22-.65-.81-.92-1-.28q-4.15,12.06-8.32,24.13-.95-9.76-2.09-19.5l-.27-2.17,7.23-22.43c.21-.65-.82-.93-1-.28q-3.25,10.1-6.5,20.19-1.6-13-3.56-26,2-7.24,4.09-14.48a.53.53,0,0,0-1-.28q-1.71,6.09-3.44,12.17c0-.11,0-.22,0-.32q-1.45-9.49-3.09-18.95c-.12-.68-1.14-.39-1,.28q1.74,10,3.27,20.14l-8.27-11.44c-.4-.55-1.33,0-.92.53l9.36,13a.51.51,0,0,0,.16.13q.84,5.61,1.62,11.21,1,7.44,1.92,14.89l-13.42-19c-.4-.55-1.32,0-.92.54l14.55,20.55.06.05q1,8.3,1.85,16.61c.17,1.68.33,3.37.49,5.06q-6.79-9.06-13.6-18.11c-.4-.54-1.33,0-.92.54l14.72,19.59c.37,4,.74,7.93,1.06,11.9.06.68,1.13.69,1.07,0q-.5-5.93-1.06-11.85v0Z" transform="translate(-4.8 -3.91)"/><path class="cls-4" d="M104.76,221.12C38,242.73,4.8,184.5,4.8,184.5S67.73,161.47,104.76,221.12Z" transform="translate(-4.8 -3.91)"/><path class="cls-5" d="M67.68,192.37c-.48-.5-1.2.29-.72.78q8.85,9.19,17.71,18.37-9.12-3.59-18.32-7l-2-.75L47.6,187.16c-.49-.49-1.2.3-.72.78l15,15q-12.34-4.5-24.81-8.66L26.07,184c-.5-.47-1.22.32-.72.78l9.28,8.6-.31-.1q-9.1-3-18.28-5.86c-.66-.2-.87.84-.22,1q9.75,3,19.42,6.25l-14,2.17c-.67.1-.62,1.17.06,1.06l15.79-2.45a.66.66,0,0,0,.19-.09q5.37,1.8,10.72,3.65,7.1,2.47,14.13,5l-23,3.35c-.67.09-.62,1.16.06,1.06l24.92-3.63s0,0,.07,0q7.84,2.9,15.63,5.91c1.58.61,3.16,1.24,4.73,1.86l-22.3,3.88c-.67.12-.62,1.18.06,1.06l24.14-4.2q5.55,2.21,11.08,4.46c.63.25,1.12-.69.49-.95-3.67-1.51-7.35-3-11-4.44l0,0Q77.36,202.4,67.68,192.37Z" transform="translate(-4.8 -3.91)"/><path class="cls-5" d="M91.41,188c1.11-3.12,2.31-6.37,4.73-8.63s6.49-3.14,9-1c2.16,1.77,2.54,4.9,2.58,7.69a69.55,69.55,0,0,1-6.6,30.7A69.61,69.61,0,0,1,70.38,210c-2.52-1.21-5.2-2.85-5.91-5.56-.84-3.2,1.65-6.53,4.72-7.79s6.52-1,9.82-.7A61.37,61.37,0,0,1,52.42,182c-2.87-2.56-5.72-6.31-4.37-9.92.87-2.33,3.33-3.75,5.79-4.11a21.24,21.24,0,0,1,7.38.7c-5.58-3.79-11-8-15.22-13.21s-7.23-11.7-7.4-18.44v-.13a11.19,11.19,0,0,1,16-10.25l.18.09c6.06,3,10.67,8.38,13.68,14.42s4.54,12.69,5.66,19.34a20.92,20.92,0,0,1,2.44-7c1.35-2.09,3.67-3.74,6.15-3.56,3.84.28,6.06,4.43,7.19,8.12A61.49,61.49,0,0,1,91.41,188Z" transform="translate(-4.8 -3.91)"/><path class="cls-4" d="M99.63,214.5,96.8,210,96,195.49c0-.68-1.1-.69-1.06,0q.34,6.31.7,12.64L83.18,188.25l-.08-27.73a.53.53,0,0,0-1.06,0q0,13,.07,26l-.76-1.21L63.07,156.15q-5.15-8.22-10.3-16.44c-.36-.58-1.28-.05-.92.54l18.28,29.17,10.69,17.06a100,100,0,0,0-23.35-11c-.66-.21-.94.82-.28,1a98.93,98.93,0,0,1,25,12.16l6.24,10q3.28,5.22,6.55,10.45l-13.54-4.31c-.65-.2-.93.82-.28,1l14.7,4.67,2.88,4.6C99.07,215.62,100,215.09,99.63,214.5Z" transform="translate(-4.8 -3.91)"/><path class="cls-5" d="M342.75,251.14c49.61-49.68,12.81-105.69,12.81-105.69S306.45,191.06,342.75,251.14Z" transform="translate(-4.8 -3.91)"/><path class="cls-4" d="M334,205c-.23-.65.8-.93,1-.28q4.16,12.06,8.32,24.13.95-9.76,2.09-19.51l.27-2.16q-3.61-11.22-7.22-22.43c-.21-.65.81-.93,1-.28L346,204.7q1.59-13,3.56-26l-4.1-14.48a.53.53,0,0,1,1-.28q1.72,6.09,3.44,12.17c0-.11,0-.22.05-.32q1.45-9.49,3.09-18.95c.12-.68,1.15-.39,1,.28q-1.74,10-3.26,20.14,4.13-5.73,8.27-11.44c.4-.56,1.32,0,.92.53l-9.36,13a.91.91,0,0,1-.16.13c-.56,3.74-1.11,7.47-1.62,11.21-.69,5-1.32,9.92-1.93,14.89l13.43-19c.39-.56,1.31,0,.92.54l-14.56,20.55s0,0-.06.05q-1,8.3-1.84,16.61c-.18,1.68-.33,3.37-.5,5.06L358,211.24c.41-.54,1.33,0,.92.54l-14.71,19.59q-.57,6-1.07,11.9c-.06.68-1.12.69-1.07,0q.5-5.93,1.07-11.85l0,0Q338.54,218.22,334,205Z" transform="translate(-4.8 -3.91)"/><path class="cls-5" d="M345.56,254.12c66.8,21.61,100-36.62,100-36.62S382.59,194.47,345.56,254.12Z" transform="translate(-4.8 -3.91)"/><path class="cls-4" d="M382.65,225.37c.47-.5,1.19.29.71.78q-8.85,9.19-17.71,18.37,9.14-3.59,18.33-7l2-.75,16.69-16.62c.49-.49,1.21.3.72.78l-15,15q12.34-4.5,24.81-8.66l11-10.22c.5-.47,1.22.32.72.78l-9.28,8.6.31-.1q9.12-3,18.29-5.86c.65-.2.86.84.21,1q-9.74,3-19.42,6.25L429,229.91c.67.1.62,1.17-.06,1.06l-15.79-2.46a.58.58,0,0,1-.18-.08q-5.38,1.8-10.73,3.65-7.08,2.47-14.13,5l23,3.35c.68.09.62,1.16-.06,1.06l-24.91-3.63s0,0-.08,0q-7.83,2.9-15.63,5.91l-4.73,1.85L388,249.53c.66.11.61,1.18-.06,1.06l-24.15-4.2q-5.55,2.21-11.08,4.46c-.63.25-1.12-.69-.49-.95,3.67-1.51,7.36-3,11-4.44l0,0Z" transform="translate(-4.8 -3.91)"/><path class="cls-4" d="M358.92,221c-1.12-3.12-2.31-6.37-4.74-8.63s-6.48-3.14-9-1c-2.17,1.77-2.55,4.9-2.59,7.69a69.56,69.56,0,0,0,6.61,30.7,69.6,69.6,0,0,0,30.78-6.8c2.52-1.21,5.2-2.85,5.91-5.56.84-3.21-1.65-6.53-4.71-7.79s-6.52-1-9.82-.7A61.44,61.44,0,0,0,397.9,215c2.87-2.56,5.72-6.32,4.37-9.92-.87-2.33-3.33-3.76-5.79-4.11a21.16,21.16,0,0,0-7.37.7c5.57-3.79,11-8,15.21-13.21s7.23-11.7,7.41-18.44v-.13a11.19,11.19,0,0,0-16-10.25l-.18.09c-6.06,3-10.67,8.38-13.67,14.42s-4.55,12.69-5.67,19.34a20.71,20.71,0,0,0-2.44-7c-1.34-2.09-3.67-3.74-6.14-3.56-3.84.28-6.07,4.43-7.2,8.12A61.37,61.37,0,0,0,358.92,221Z" transform="translate(-4.8 -3.91)"/><path class="cls-5" d="M350.7,247.5l2.82-4.5.8-14.51c0-.68,1.1-.69,1.07,0q-.36,6.31-.7,12.64l12.46-19.89.07-27.72a.53.53,0,0,1,1.06,0l-.06,26,.75-1.21,18.28-29.18,10.3-16.44c.36-.58,1.29-.05.92.53l-18.28,29.18-10.68,17.06a99.78,99.78,0,0,1,23.34-11c.66-.21.94.82.29,1a98.5,98.5,0,0,0-25,12.16l-6.24,10-6.55,10.46,13.54-4.31c.65-.2.93.82.28,1l-14.69,4.67-2.88,4.6C351.25,248.62,350.33,248.09,350.7,247.5Z" transform="translate(-4.8 -3.91)"/><polygon class="cls-6" points="246.95 251.07 365.93 251.07 354.8 191.84 339.99 187.73 321.23 135.01 286.35 136.46 272.84 171.6 253.99 184.37 246.95 251.07"/><polygon class="cls-7" points="321.23 135.01 297.04 203.31 354.8 191.84 339.99 187.73 321.23 135.01"/><polygon class="cls-7" points="253.99 184.37 279.25 201.66 300.88 251.07 292.74 193.04 253.99 184.37"/><path class="cls-3" d="M324.78,139.44,307.06,162.2l-4.23-8.37a.54.54,0,0,0-.84-.11l-20.91,19.92c-.5.48.26,1.24.76.76L302.21,155l4.29,8.48a.53.53,0,0,0,.84.11l18.19-23.37C326,139.66,325.2,138.89,324.78,139.44Z" transform="translate(-4.8 -3.91)"/><path class="cls-3" d="M348.32,198.14l-34.91,6.54-5.25,1L335,196.07l8.9-3.18c.65-.23.37-1.26-.28-1L312.14,203.1l-8.9,3.19a.56.56,0,0,0-.1,1,.54.54,0,0,0,.59.28l34.9-6.54,10-1.87C349.28,199.05,349,198,348.32,198.14Z" transform="translate(-4.8 -3.91)"/><path class="cls-3" d="M359.23,213.39q-.94-5-1.93-10c-.14-.68-1.17-.39-1,.28q3.48,17.63,6.4,35.36.82,5,1.6,10.08c.11.68,1.14.39,1-.29Q362.54,231.06,359.23,213.39Z" transform="translate(-4.8 -3.91)"/><polygon class="cls-6" points="58.93 249.83 184.91 249.83 173.12 193.53 157.44 189.62 137.58 139.5 100.64 140.88 86.34 194.66 66.38 206.8 58.93 249.83"/><polygon class="cls-7" points="137.58 139.5 111.96 204.43 173.12 193.53 157.44 189.62 137.58 139.5"/><polygon class="cls-7" points="66.38 206.8 122.54 220.94 116.03 249.83 145.91 212.2 66.38 206.8"/><path class="cls-3" d="M115.46,200,91,198.5l11.62-41.77L106,144.65a.54.54,0,0,0-1-.29q-5.9,21.21-11.8,42.4l-3.3,11.9Q80,204,70.65,210.05c-.57.38,0,1.3.54.93q9.41-6.07,19.24-11.44h0l25,1.48C116.15,201.06,116.14,200,115.46,200Z" transform="translate(-4.8 -3.91)"/><path class="cls-3" d="M103.94,226.72q-9.24,2.86-18.7,4.89l-12-17.13c-.39-.56-1.32,0-.92.54q6.14,8.76,12.28,17.53a.54.54,0,0,0,.78.13c5.89-1.26,11.72-2.78,17.47-4.52l-16,25c-.38.58.55,1.12.92.54q8.37-13.08,16.75-26.16A.54.54,0,0,0,103.94,226.72Z" transform="translate(-4.8 -3.91)"/><path class="cls-4" d="M190.69,24.83a20.92,20.92,0,1,0-41.84,0s0,.37,0,1.07c0,.12,0,.25,0,.4A26.67,26.67,0,0,0,149.5,30a.47.47,0,0,0,0,.09c1.44,6.39,6,17.78,20.24,29.29C184,47.86,188.57,36.47,190,30.08c0,0,0-.07,0-.09a26.67,26.67,0,0,0,.58-3.69,5.33,5.33,0,0,0,0-.64C190.7,25.11,190.69,24.83,190.69,24.83Zm-20.92,12a12,12,0,1,1,12-12A12,12,0,0,1,169.77,36.84Z" transform="translate(-4.8 -3.91)"/><path class="cls-2" d="M433.88,253.8c0,17.18-91.91,31.11-205.27,31.11S23.33,271,23.33,253.8Z" transform="translate(-4.8 -3.91)"/><path class="cls-3" d="M294.62,231.21c.25.1,8.94,12.11,8.94,12.11v19.07h56.31s4.47-26.12-30.59-26.12L319,213.93Z" transform="translate(-4.8 -3.91)"/><path class="cls-3" d="M284.59,232.4,288,256.63h23s3.43-19.61-2.48-27.81Z" transform="translate(-4.8 -3.91)"/><path class="cls-4" d="M313.47,221.89c-5,5-12.33,9.42-19.15,8a14.56,14.56,0,0,1-4.7-2.1c-11.66-7.41-27.19-30.66-27.19-30.66l-19.65,28.6,9.83,5.66s19.58-8.19,31.08-1.67a14.63,14.63,0,0,1,6.16,6.74c8,17.28-3.27,26.19-3.27,26.19H205.84c-37.84,0-36.07-26.19-36.07-26.19l25.79-23.38L219,188.9s21-24.46,42.22-32c16.76-5.94,43.46,31.87,53.95,48A13.55,13.55,0,0,1,313.47,221.89Z" transform="translate(-4.8 -3.91)"/><path class="cls-8" d="M189.86,75.57l-.93.59A96.76,96.76,0,0,0,161.57,103c-.23.33-.45.65-.66,1A42.56,42.56,0,0,1,148,100c-3.52-1.75-7.08-4-8.33-8s0-8.33,2-11.9A20.22,20.22,0,0,1,149.56,72a15.18,15.18,0,0,1,10.23-1.52,17.7,17.7,0,0,1,4.68-4.2,17.32,17.32,0,0,1,25.39,9.26Z" transform="translate(-4.8 -3.91)"/><path class="cls-9" d="M192.43,92.37v15a13.48,13.48,0,0,1-.14,2,15,15,0,0,1-9.49,11.92l2.36,5.87h0c0,.62-.44,12.28-11.09,12-10.92-.31-15.69-12.73-15.69-12.73l.44-4.5,1.5-15.09a13.63,13.63,0,0,1-2-.21h0a7.3,7.3,0,0,1-6.13-6.43,2.7,2.7,0,0,1,0-.41c0-.21,0-.42,0-.65a8,8,0,0,1,2.31-5.78,5.77,5.77,0,0,1,4-1.7,2.55,2.55,0,0,1,.39,0,5.74,5.74,0,0,1,3.76,1.81,10.86,10.86,0,0,0,4.18-6.62,8.15,8.15,0,0,1,4.34.33c1.69.54,3.25,1.4,4.89,2a12.67,12.67,0,0,0,2.88.78,6.82,6.82,0,0,0,2.3-.06,4.48,4.48,0,0,0,3.59-3.44A9.14,9.14,0,0,0,191.78,88,14.61,14.61,0,0,1,192.43,92.37Z" transform="translate(-4.8 -3.91)"/><path class="cls-3" d="M185.16,127.17s-16.53,2.09-20.42-12.09a14.88,14.88,0,0,0,18.06,6.23Z" transform="translate(-4.8 -3.91)"/><path class="cls-10" d="M180.9,93.32s.1,5.76,7,11.07S174.71,113.51,180.9,93.32Z" transform="translate(-4.8 -3.91)"/><circle class="cls-10" cx="164.97" cy="98.72" r="3.64"/><ellipse class="cls-3" cx="169.89" cy="92.95" rx="2.45" ry="2.68"/><ellipse class="cls-3" cx="182.17" cy="92.95" rx="2.45" ry="2.68"/><path class="cls-3" d="M177,108a1.06,1.06,0,0,1-.19-.06,3.25,3.25,0,0,1-.51-.3,4.07,4.07,0,0,1-.41-.42,3.64,3.64,0,0,1-.28-.47,2.93,2.93,0,0,1-.18-.66l0,.21a1.3,1.3,0,0,0-.33-.79,1.2,1.2,0,0,0-.8-.33,1.18,1.18,0,0,0-.8.33,1.11,1.11,0,0,0-.33.8,5,5,0,0,0,.13.77,4.3,4.3,0,0,0,.26.71,4.6,4.6,0,0,0,2.81,2.4,1.2,1.2,0,0,0,.87-.12A1.13,1.13,0,0,0,177,108Z" transform="translate(-4.8 -3.91)"/><path class="cls-3" d="M175.93,91a9.84,9.84,0,0,0-4.3,1.4,1.13,1.13,0,0,0,1.14,2,9.42,9.42,0,0,1,1.09-.57,8.56,8.56,0,0,1,1.91-.51l.16,0a1.23,1.23,0,0,0,.8-.33,1.11,1.11,0,0,0,.33-.8A1.14,1.14,0,0,0,175.93,91Z" transform="translate(-4.8 -3.91)"/><path class="cls-3" d="M190.6,92.37a7.11,7.11,0,0,0-3-1.53,1.23,1.23,0,0,0-.88.12,1.17,1.17,0,0,0-.52.67,1.15,1.15,0,0,0,.12.87A1.12,1.12,0,0,0,187,93a5.56,5.56,0,0,1,.9.29A5.39,5.39,0,0,1,189,94l0,0a1.27,1.27,0,0,0,.8.33,1.18,1.18,0,0,0,.8-.33,1.11,1.11,0,0,0,.33-.8A1.08,1.08,0,0,0,190.6,92.37Z" transform="translate(-4.8 -3.91)"/><path class="cls-3" d="M194.18,87.15a8.2,8.2,0,0,1-2.4.86,9.14,9.14,0,0,1-7.07-1.49A4.48,4.48,0,0,1,181.12,90a6.82,6.82,0,0,1-2.3.06,12.67,12.67,0,0,1-2.88-.78c-1.64-.65-3.2-1.51-4.89-2a8.15,8.15,0,0,0-4.34-.33,10.86,10.86,0,0,1-4.18,6.62,5.74,5.74,0,0,0-3.76-1.81A9.3,9.3,0,0,1,161,87a9.09,9.09,0,0,1,4.59-2.7,10.18,10.18,0,0,1,10.3-9.22c2,0,4.16.8,5.15,2.54A14.21,14.21,0,0,1,185.77,73a9.33,9.33,0,0,1,6.42-1.16,8.28,8.28,0,0,1,6.32,6.93A8.65,8.65,0,0,1,194.18,87.15Z" transform="translate(-4.8 -3.91)"/><path class="cls-11" d="M148.54,123l4.47-8.44,18.06,12.31,1.17,9.24h9.67l.69-11.52,5.16-6.37s2.82,1.3,3.17,4c0,0,8.16-3,13.12-1s31.48,8.63,31.48,8.63,7.1-5.16,15.2-1.79,15.79,19.62,9.23,27.61-22.74,5-22.74,5l-30.49-4.17s1.05,11.12-.69,15.89c0,0,13,8,13,16.58l-23.49,24.18s-5.51,29.42-19.36,33.07-25.92-13-19.37-26.36a48.63,48.63,0,0,1-10.43-15.94s-2,12.46-8.19,21.3c0,0,2.68,9.08-7.15,16.28l-2.09,8s-15.24.05-18.07-6.56l1.49-2.88s-4.12-4.71-3.28-10.92a20.55,20.55,0,0,1,3.78-9.73s-1-15.54,5.51-24.33c0,0-2.91-49.43,6.4-59.87S148.54,123,148.54,123Z" transform="translate(-4.8 -3.91)"/><path class="cls-9" d="M112.2,244.82s-26.35,7.33-28.66,13.55H99.18s-6.29,2.23-6.4,3.94,25.84-3.5,25.84-3.5,9.18.56,8.7-9.38Z" transform="translate(-4.8 -3.91)"/><path class="cls-3" d="M252.76,230.4l-25.21-12.15-7.2-3.48c-.62-.29-1.16.63-.54.93L245,227.85l7.21,3.47C252.83,231.62,253.38,230.7,252.76,230.4Z" transform="translate(-4.8 -3.91)"/><path class="cls-3" d="M238.62,220.06l-9.11-9.95c-.47-.51-1.22.25-.76.76l9.12,9.95C238.33,221.33,239.09,220.57,238.62,220.06Z" transform="translate(-4.8 -3.91)"/><path class="cls-3" d="M242.08,217.8a41.07,41.07,0,0,1-2.12-9c-.08-.68-1.15-.69-1.07,0a42.51,42.51,0,0,0,2.16,9.24C241.28,218.73,242.31,218.45,242.08,217.8Z" transform="translate(-4.8 -3.91)"/><path class="cls-3" d="M255,239.44c-.37-.57-1.3,0-.92.55a12.62,12.62,0,0,1,.27,13,.53.53,0,0,0,.92.54A13.71,13.71,0,0,0,255,239.44Z" transform="translate(-4.8 -3.91)"/><path class="cls-3" d="M261.15,194.77q-3.28-4.54-6.58-9.07c-.4-.55-1.33,0-.93.54l6.59,9.07C260.63,195.86,261.56,195.32,261.15,194.77Z" transform="translate(-4.8 -3.91)"/><path class="cls-3" d="M260,195.2l-3.74-1.61a.54.54,0,0,0-.54.93l3.74,1.61a.55.55,0,0,0,.73-.2A.53.53,0,0,0,260,195.2Z" transform="translate(-4.8 -3.91)"/><path class="cls-3" d="M275.78,166.46A3.11,3.11,0,0,1,274,169.2a5.82,5.82,0,0,1-4.07.2,13.73,13.73,0,0,1-6.55-3.9c-.47-.5-1.23.26-.75.76a14.34,14.34,0,0,0,8.11,4.39,6,6,0,0,0,4.29-.83,4.08,4.08,0,0,0,1.82-3.36A.54.54,0,0,0,275.78,166.46Z" transform="translate(-4.8 -3.91)"/><path class="cls-3" d="M304.31,226.51a8.3,8.3,0,0,1-7.46-4.75c-.29-.63-1.21-.08-.92.54a9.34,9.34,0,0,0,8.38,5.28A.54.54,0,0,0,304.31,226.51Z" transform="translate(-4.8 -3.91)"/><path class="cls-3" d="M310.36,212.81a.54.54,0,0,0-.54.93,5.52,5.52,0,0,1,2.66,5.61.55.55,0,0,0,.37.66.54.54,0,0,0,.66-.37A6.62,6.62,0,0,0,310.36,212.81Z" transform="translate(-4.8 -3.91)"/><path class="cls-3" d="M289.68,237.64a6.81,6.81,0,0,0-6.82,0,.54.54,0,0,0,.54.93,5.67,5.67,0,0,1,5.74,0A.54.54,0,0,0,289.68,237.64Z" transform="translate(-4.8 -3.91)"/><path class="cls-3" d="M291.35,249.13a.54.54,0,0,0-.73.19,11.76,11.76,0,0,1-5.95,5.9.54.54,0,0,0,.54.93,12.65,12.65,0,0,0,6.34-6.29A.56.56,0,0,0,291.35,249.13Z" transform="translate(-4.8 -3.91)"/><path class="cls-3" d="M188,218.23c-2.36,5-3.62,10.59-6.63,15.32-2.57,4-7.13,7.8-12.24,6.92a7.89,7.89,0,0,1-5.89-4.21c-.3-.62-1.22-.08-.93.54,2.2,4.59,8,5.81,12.42,4,5.24-2.14,8.24-7.16,10.3-12.16,1.35-3.28,2.39-6.67,3.9-9.88C189.2,218.15,188.28,217.6,188,218.23Z" transform="translate(-4.8 -3.91)"/><path class="cls-3" d="M153.8,168.79l-7.23,33.5c-.14.67.89,1,1,.28l7.22-33.5C155,168.4,154,168.11,153.8,168.79Z" transform="translate(-4.8 -3.91)"/><path class="cls-3" d="M155.16,189.11l-4.95,8.78a.54.54,0,0,0,.93.54l4.94-8.77C156.42,189.05,155.49,188.51,155.16,189.11Z" transform="translate(-4.8 -3.91)"/><path class="cls-3" d="M203.15,204A129.87,129.87,0,0,1,181,152.61a125.47,125.47,0,0,1-2-15.8c-.05-.68-1.12-.69-1.07,0a130.72,130.72,0,0,0,24.3,67.77C202.62,205.14,203.55,204.6,203.15,204Z" transform="translate(-4.8 -3.91)"/><path class="cls-3" d="M169.8,135.66a59.06,59.06,0,0,1-19.64-12.43c-.5-.48-1.26.28-.76.75a60.34,60.34,0,0,0,20.12,12.71C170.16,136.94,170.44,135.9,169.8,135.66Z" transform="translate(-4.8 -3.91)"/><path class="cls-3" d="M190.23,122.68a52.14,52.14,0,0,1-7.77,12.12c-.45.52.3,1.28.75.76a53,53,0,0,0,7.95-12.34C191.45,122.6,190.52,122.05,190.23,122.68Z" transform="translate(-4.8 -3.91)"/><path class="cls-3" d="M155,116.33q-2.06,4.1-4.1,8.19c-.31.61.61,1.16.92.54l4.11-8.19C156.2,116.25,155.28,115.71,155,116.33Z" transform="translate(-4.8 -3.91)"/><path class="cls-3" d="M159.27,119.19l-4.51,8.69c-.32.61.6,1.15.92.54q2.26-4.35,4.52-8.69C160.51,119.12,159.59,118.57,159.27,119.19Z" transform="translate(-4.8 -3.91)"/><path class="cls-3" d="M163.44,122.39q-2,4.45-3.89,8.93c-.27.62.65,1.17.93.54q1.94-4.47,3.88-8.93C164.64,122.3,163.71,121.76,163.44,122.39Z" transform="translate(-4.8 -3.91)"/><path class="cls-3" d="M168.2,124.91q-1.41,4.69-2.81,9.37a.54.54,0,0,0,1,.29q1.41-4.69,2.81-9.37A.54.54,0,0,0,168.2,124.91Z" transform="translate(-4.8 -3.91)"/><path class="cls-3" d="M186.35,130.62l-2.54-6.72a.57.57,0,0,0-.66-.38.55.55,0,0,0-.38.66l2.55,6.73a.55.55,0,0,0,.66.37A.53.53,0,0,0,186.35,130.62Z" transform="translate(-4.8 -3.91)"/><path class="cls-3" d="M189.64,125.21l-2.43-5.52a.54.54,0,0,0-.74-.19.54.54,0,0,0-.19.73q1.22,2.76,2.44,5.52a.53.53,0,0,0,.73.19A.55.55,0,0,0,189.64,125.21Z" transform="translate(-4.8 -3.91)"/><path class="cls-3" d="M133.59,206.14c-2.12,2.08-5.32,4.88-8.38,2.8-2.77-1.9-2.79-5.67-2.77-8.67a.54.54,0,0,0-1.07,0c0,3.47.17,7.62,3.44,9.68a5.51,5.51,0,0,0,5,.3,14.51,14.51,0,0,0,4.5-3.35A.54.54,0,0,0,133.59,206.14Z" transform="translate(-4.8 -3.91)"/><path class="cls-3" d="M236.84,152.06a26.53,26.53,0,0,1-1.26-17.46.53.53,0,0,0-1-.28,27.76,27.76,0,0,0,1.36,18.28C236.19,153.23,237.11,152.69,236.84,152.06Z" transform="translate(-4.8 -3.91)"/><path class="cls-3" d="M244.22,146.84a17.46,17.46,0,0,1-4-9.78c-.05-.68-1.12-.69-1.07,0a18.71,18.71,0,0,0,4.32,10.54C243.91,148.12,244.66,147.36,244.22,146.84Z" transform="translate(-4.8 -3.91)"/><path class="cls-3" d="M206.08,148.43q-.63-3.62-1.61-7.16a.54.54,0,0,0-1,.29,78,78,0,0,1,1.91,32.06c-.11.67.93,1,1,.28A79.15,79.15,0,0,0,206.08,148.43Z" transform="translate(-4.8 -3.91)"/><path class="cls-3" d="M159.05,72.2a31.49,31.49,0,0,0-9.18,17.21c-.12.67.91,1,1,.28A30.62,30.62,0,0,1,159.81,73C160.31,72.48,159.55,71.72,159.05,72.2Z" transform="translate(-4.8 -3.91)"/><path class="cls-3" d="M157.05,72.77a.54.54,0,0,0-.73-.19,36,36,0,0,0-5.48,4.76c-.47.51.29,1.27.76.76a33.82,33.82,0,0,1,5.26-4.59A.55.55,0,0,0,157.05,72.77Z" transform="translate(-4.8 -3.91)"/><path class="cls-12" d="M267.28,112.13l-4.21,28.41a3.38,3.38,0,0,1-3.34,2.87H247a3.38,3.38,0,0,1-3.34-3.87l4.22-28.4a3.38,3.38,0,0,1,3.34-2.88h12.77A3.38,3.38,0,0,1,267.28,112.13Z" transform="translate(-4.8 -3.91)"/><path class="cls-3" d="M250.5,109.88A108.28,108.28,0,0,0,248.4,122c-.07.67,1,.66,1,0a105.59,105.59,0,0,1,2.06-11.85C251.65,109.51,250.65,109.23,250.5,109.88Z" transform="translate(-4.8 -3.91)"/><circle class="cls-3" cx="257.78" cy="108.3" r="1.62"/><path class="cls-9" d="M264.05,124.6s-13.33,1.41-16.65,5,5.88,12.44,9.24,14.52,12.81-1,13.63-4.94-2-23.93-3.58-23.66C261.92,116.35,264.05,124.6,264.05,124.6Z" transform="translate(-4.8 -3.91)"/><path class="cls-13" d="M328.32,235.61c-.5,13.28-6.69,26.47-17.32,34.47s-25.63,10.17-37.67,4.53-20.1-19.31-18.19-32.46a33.58,33.58,0,0,1,3.1-9.82,33.46,33.46,0,0,1,6.94-11.14c.8-.88,1.64-1.74,2.48-2.59,1.23-1.44,2.49-2.87,3.74-4.26,3.05-3.4,6.18-6.85,9-10.49a29,29,0,0,0,6.18-17.42,31.76,31.76,0,0,0-2.12-11.73c12.15,5.39,23.31,13.34,31.41,23.87S328.83,222.32,328.32,235.61Z" transform="translate(-4.8 -3.91)"/><path class="cls-14" d="M320.88,241.8c-1.8,11.11-7.85,21.61-16.65,27.32s-20.26,6.1-28.66.21-13-18.16-10.12-29a31,31,0,0,1,3.38-8,29.19,29.19,0,0,1,6.38-8.71c.7-.66,1.41-1.3,2.14-1.93,1.07-1.1,2.17-2.18,3.25-3.23,2.12-2,4.28-4.13,6.32-6.3a29.25,29.25,0,0,0,7.94-24.38c-.07-.47-.16-.94-.25-1.4a62,62,0,0,1,20.92,23.07A53.38,53.38,0,0,1,320.88,241.8Z" transform="translate(-4.8 -3.91)"/><path class="cls-13" d="M309.5,255.85c-3.06,6-8.24,11-14,12.76s-11.84.14-15.15-4.58-3.39-12.43.17-18.13a19.75,19.75,0,0,1,3.29-4,17.92,17.92,0,0,1,5-3.89c.49-.26,1-.5,1.5-.74.77-.45,1.55-.88,2.32-1.3,1.51-.82,3-1.64,4.53-2.54A18.73,18.73,0,0,0,306,221c.05-.28.09-.56.13-.84a35.09,35.09,0,0,1,6.66,16.53A34,34,0,0,1,309.5,255.85Z" transform="translate(-4.8 -3.91)"/><path class="cls-9" d="M327.76,269.46a4.44,4.44,0,0,1-3.86,5l-73.14,9.36a4.47,4.47,0,1,1-1.14-8.86l73.14-9.36A4.45,4.45,0,0,1,327.76,269.46Z" transform="translate(-4.8 -3.91)"/><path class="cls-15" d="M325.8,281.94a4.47,4.47,0,0,1-5.29,3.47l-72.2-14.93a4.47,4.47,0,1,1,1.81-8.75l72.2,14.93A4.46,4.46,0,0,1,325.8,281.94Z" transform="translate(-4.8 -3.91)"/><path class="cls-3" d="M300.16,275l-38.79-8.51-11-2.4c-.63-.14-.89.82-.27,1l38.79,8.51,11,2.41C300.52,276.11,300.78,275.15,300.16,275Z" transform="translate(-4.8 -3.91)"/><path class="cls-3" d="M313,278.31l-10.1-2.42c-.62-.15-.89.82-.26,1l10.1,2.42C313.4,279.43,313.67,278.46,313,278.31Z" transform="translate(-4.8 -3.91)"/><path class="cls-3" d="M319.86,267.55l-17.79,2c-.63.07-.64,1.07,0,1l17.79-2C320.5,268.48,320.5,267.48,319.86,267.55Z" transform="translate(-4.8 -3.91)"/><path class="cls-3" d="M316.16,270l-6.86.66c-.63.06-.64,1.06,0,1l6.86-.66C316.79,270.9,316.8,269.9,316.16,270Z" transform="translate(-4.8 -3.91)"/><path class="cls-3" d="M276.29,277.33l-24.77,4.2c-.63.11-.36,1.07.27,1l24.77-4.19C277.19,278.19,276.92,277.22,276.29,277.33Z" transform="translate(-4.8 -3.91)"/><path class="cls-3" d="M192.43,206s14.29,11.12,17.38,28.54-7.94,30.57-7.94,30.57l-1.54-12.41s6.31-5.45,3.14-18-9-17.75-9-17.75Z" transform="translate(-4.8 -3.91)"/><path class="cls-16" d="M192.32,275.16H162.54c0-4.07.11-8,.32-11.67h0c2.18-40,15.16-60.2,17.43-63.45.14-.19.23-.33.29-.4l-.09-.45h3.19c4.6,0,8.56,3.91,9.44,9.32l8.64,52.91C202.92,268.53,198.37,275.16,192.32,275.16Z" transform="translate(-4.8 -3.91)"/><path class="cls-4" d="M180.58,199.63c-.06.07-.15.21-.29.4-2.27,3.25-15.25,23.42-17.43,63.45h0c-.21,3.72-.32,7.6-.32,11.67H128.09c-5.56,0-10-5.65-9.6-12.33,1.78-30.76,9.93-49.69,14.53-58.11a9.28,9.28,0,0,1,8-5.17H178a8.44,8.44,0,0,0,2.52-.37Z" transform="translate(-4.8 -3.91)"/><path class="cls-8" d="M187.64,199.63l-.29.4.2-.85Z" transform="translate(-4.8 -3.91)"/><path class="cls-8" d="M191.8,189.11v.49c0,6-3.45,11-8.07,12.33a8.5,8.5,0,0,1-2.52.38H139.45c-5.82,0-10.59-5.72-10.59-12.71v-.49c0-7,4.77-12.71,10.59-12.71h41.76C187,176.4,191.8,182.12,191.8,189.11Z" transform="translate(-4.8 -3.91)"/><path class="cls-7" d="M189.56,187v4.74c0,5.11-3.48,9.3-7.75,9.3s-7.76-4.19-7.76-9.3V187c0-5.11,3.49-9.3,7.76-9.3a7.15,7.15,0,0,1,5.47,2.73A10.26,10.26,0,0,1,189.56,187Z" transform="translate(-4.8 -3.91)"/><path class="cls-8" d="M182.24,268.51c-12.27,0-11.71-15.32-11-21.2a2.54,2.54,0,0,1,2.54-2.25h17a2.54,2.54,0,0,1,2.54,2.25C194,253.19,194.51,268.51,182.24,268.51Z" transform="translate(-4.8 -3.91)"/><path class="cls-8" d="M159.85,252.55v6.06a12.15,12.15,0,0,1-12.11,12.11H134.57a12.15,12.15,0,0,1-12.11-12.11v-6.06a3,3,0,0,1,3-3h31.35A3,3,0,0,1,159.85,252.55Z" transform="translate(-4.8 -3.91)"/><rect class="cls-12" x="117.67" y="249.02" width="37.39" height="1.92"/><path class="cls-3" d="M141.82,202.16h-5.44c-8.44-15.84.64-26.89,1-27.37a2.5,2.5,0,0,1,3.83,3.22c-.34.41-7.68,9.61.23,23A2.44,2.44,0,0,1,141.82,202.16Z" transform="translate(-4.8 -3.91)"/><path class="cls-3" d="M141.71,202.3v12.56a2.61,2.61,0,0,1-5.21,0V202.3Z" transform="translate(-4.8 -3.91)"/><path class="cls-11" d="M140.62,214.68h-3a3.46,3.46,0,0,1-3.45-3.45v-6.16a3.46,3.46,0,0,1,3.45-3.45h3a3.46,3.46,0,0,1,3.45,3.45v6.16A3.46,3.46,0,0,1,140.62,214.68Zm-3-11.06a1.45,1.45,0,0,0-1.45,1.45v6.16a1.45,1.45,0,0,0,1.45,1.45h3a1.45,1.45,0,0,0,1.45-1.45v-6.16a1.45,1.45,0,0,0-1.45-1.45Z" transform="translate(-4.8 -3.91)"/><rect class="cls-11" x="133.17" y="198.71" width="2" height="6.13"/><path class="cls-3" d="M166.05,202.16h-5.44c-8.44-15.84.64-26.89,1-27.37a2.5,2.5,0,0,1,3.83,3.22c-.34.41-7.68,9.61.23,23A2.44,2.44,0,0,1,166.05,202.16Z" transform="translate(-4.8 -3.91)"/><path class="cls-3" d="M165.94,202.3v12.56a2.61,2.61,0,0,1-5.21,0V202.3Z" transform="translate(-4.8 -3.91)"/><path class="cls-11" d="M164.84,214.68h-3a3.46,3.46,0,0,1-3.45-3.45v-6.16a3.46,3.46,0,0,1,3.45-3.45h3a3.46,3.46,0,0,1,3.45,3.45v6.16A3.46,3.46,0,0,1,164.84,214.68Zm-3-11.06a1.45,1.45,0,0,0-1.45,1.45v6.16a1.45,1.45,0,0,0,1.45,1.45h3a1.45,1.45,0,0,0,1.45-1.45v-6.16a1.45,1.45,0,0,0-1.45-1.45Z" transform="translate(-4.8 -3.91)"/><rect class="cls-11" x="157.39" y="198.71" width="2" height="6.13"/><path class="cls-3" d="M185,213.79c-.2-2.78-.41-5.55-.61-8.33,0-.64-1-.64-1,0q1.07,14.61,2.12,29.21l.6,8.33c0,.63,1,.64,1,0Q186.06,228.39,185,213.79Z" transform="translate(-4.8 -3.91)"/><path class="cls-3" d="M175,204.15a96.07,96.07,0,0,0-12.19,31.33c-.6,3.09-1.06,6.2-1.36,9.33-.06.64.94.64,1,0a94.92,94.92,0,0,1,9-32q2-4.2,4.45-8.17C176.18,204.1,175.32,203.6,175,204.15Z" transform="translate(-4.8 -3.91)"/><path class="cls-3" d="M159.94,265.23l-.15,5.84a.5.5,0,0,0,1,0l.15-5.84C161,264.59,160,264.59,159.94,265.23Z" transform="translate(-4.8 -3.91)"/><path class="cls-3" d="M174.22,178.05a20.36,20.36,0,0,0-.68,22.06c.34.54,1.2,0,.86-.51a19.38,19.38,0,0,1,.68-21C175.45,178,174.59,177.53,174.22,178.05Z" transform="translate(-4.8 -3.91)"/></g></g></svg>